<svg width="24" height="25" viewBox="0 0 24 25" fill="none" xmlns="http://www.w3.org/2000/svg">
<path d="M16.6 14.1576C16.4 14.0576 15.1 13.4576 14.9 13.3576C14.7 13.2576 14.5 13.2576 14.3 13.4576C14.1 13.6576 13.7 14.2576 13.5 14.4576C13.4 14.6576 13.2 14.6576 13 14.5576C12.3 14.2576 11.6 13.8576 11 13.3576C10.5 12.8576 10 12.2576 9.6 11.6576C9.5 11.4576 9.6 11.2576 9.7 11.1576C9.8 11.0576 9.9 10.8576 10.1 10.7576C10.2 10.6576 10.3 10.4576 10.3 10.3576C10.4 10.2576 10.4 10.0576 10.3 9.95755C10.2 9.85755 9.7 8.65755 9.5 8.15755C9.4 7.45755 9.2 7.45755 9 7.45755C8.9 7.45755 8.7 7.45755 8.5 7.45755C8.3 7.45755 8 7.65755 7.9 7.75755C7.3 8.35755 7 9.05755 7 9.85755C7.1 10.7576 7.4 11.6576 8 12.4576C9.1 14.0576 10.5 15.3576 12.2 16.1576C12.7 16.3576 13.1 16.5576 13.6 16.6576C14.1 16.8576 14.6 16.8576 15.2 16.7576C15.9 16.6576 16.5 16.1576 16.9 15.5576C17.1 15.1576 17.1 14.7576 17 14.3576C17 14.3576 16.8 14.2576 16.6 14.1576ZM19.1 5.05755C15.2 1.15755 8.9 1.15755 5 5.05755C1.8 8.25755 1.2 13.1576 3.4 17.0576L2 22.1576L7.3 20.7576C8.8 21.5576 10.4 21.9576 12 21.9576C17.5 21.9576 21.9 17.5576 21.9 12.0576C22 9.45755 20.9 6.95755 19.1 5.05755ZM16.4 19.0576C15.1 19.8576 13.6 20.3576 12 20.3576C10.5 20.3576 9.1 19.9576 7.8 19.2576L7.5 19.0576L4.4 19.8576L5.2 16.8576L5 16.5576C2.6 12.5576 3.8 7.55755 7.7 5.05755C11.6 2.55755 16.6 3.85755 19 7.65755C21.4 11.5576 20.3 16.6576 16.4 19.0576Z" fill="#F9F9F9"/>
</svg>
